{"title":"The Man Who Sued God (2001) DVDRip XviD AC3 peaSoup","uid":8839466,"size":734826496,"categoryP":"video","categoryS":"movies","magnet":"?xt=urn:btih:60f33b9722080fb4581890e12066b71b1045ce49&amp;dn=The+Man+Who+Sued+God+%282001%29+DVDRip+XviD+AC3+peaSoup&amp;tr=udp%3A%2F%2Ftracker.openbittorrent.com%3A80&amp;tr=udp%3A%2F%2Fopen.demonii.com%3A1337&amp;tr=udp%3A%2F%2Ftracker.coppersurfer.tk%3A6969&amp;tr=udp%3A%2F%2Fexodus.desync.com%3A6969","seeders":12,"leechers":1,"uploader":"peaSoup","files":-1,"time":1377207632,"description":"Storyline\n\nBilly Connolly plays Steve Myers, a lawyer who became a fisherman from frustration. When his one piece of property, his boat, is struck by lightning and destroyed he is denied insurance money because it was 'an act of God'. He re-registers as a lawyer and sues the insurance company and the church under the guise of God, defending himself. The accident leads him to a friendship and eventual relationship with a journalist, Anna Redmond (Davis).                                                   &lt;a href=&quot; http://imageshack.us/a/img21/7325/s6zc.jpg&quot; rel=&quot;nofollow&quot; target=&quot;_NEW&quot;&gt; http://imageshack.us/a/img21/7325/s6zc.jpg&lt;/a&gt;                                          &lt;a href=&quot; http://imageshack.us/a/img703/8129/wnup.jpg&quot; rel=&quot;nofollow&quot; target=&quot;_NEW&quot;&gt; http://imageshack.us/a/img703/8129/wnup.jpg&lt;/a&gt;                                         &lt;a href=&quot; http://imageshack.us/a/img819/3998/5hv4.jpg&quot; rel=&quot;nofollow&quot; target=&quot;_NEW&quot;&gt; http://imageshack.us/a/img819/3998/5hv4.jpg&lt;/a&gt;                                         &lt;a href=&quot; http://imageshack.us/a/img268/5284/h5jd.jpg&quot; rel=&quot;nofollow&quot; target=&quot;_NEW&quot;&gt; http://imageshack.us/a/img268/5284/h5jd.jpg&lt;/a&gt;                                         &lt;a href=&quot; http://imageshack.us/a/img199/9653/v5t7.jpg&quot; rel=&quot;nofollow&quot; target=&quot;_NEW&quot;&gt; http://imageshack.us/a/img199/9653/v5t7.jpg&lt;/a&gt;                                          Format                                   : AVI\nFormat/Info                              : Audio Video Interleave\nFile size                                : 701 MiB\nDuration                                 : 1h 37mn\nOverall bit rate                         : 1 002 Kbps\nWriting application                      : VirtualDubMod 1.5.4.1 (build 2178/release)\nWriting library                          : VirtualDubMod build 2178/release\n\nVideo\nID                                       : 0\nFormat                                   : MPEG-4 Visual\nFormat profile                           : Advanced Simple@L5\nFormat settings, BVOP                    : 1\nFormat settings, QPel                    : No\nFormat settings, GMC                     : No warppoints\nFormat settings, Matrix                  : Custom\nCodec ID                                 : XVID\nCodec ID/Hint                            : XviD\nDuration                                 : 1h 37mn\nBit rate                                 : 739 Kbps\nWidth                                    : 608 pixels\nHeight                                   : 352 pixels\nDisplay aspect ratio                     : 1.727\nFrame rate                               : 25.000 fps\nColor space                              : YUV\nChroma subsampling                       : 4:2:0\nBit depth                                : 8 bits\nScan type                                : Progressive\nCompression mode                         : Lossy\nBits/(Pixel*Frame)                       : 0.138\nStream size                              : 517 MiB (74%)\nWriting library                          : XviD 1.2.1 (UTC 2008-12-04)\n\nAudio\nID                                       : 1\nFormat                                   : AC-3\nFormat/Info                              : Audio Coding 3\nMode extension                           : CM (complete main)\nFormat settings, Endianness              : Big\nCodec ID                                 : 2000\nDuration                                 : 1h 37mn\nBit rate mode                            : Constant\nBit rate                                 : 256 Kbps\nChannel(s)                               : 2 channels\nChannel positions                        : Front: L R\nSampling rate                            : 48.0 KHz\nBit depth                                : 16 bits\nCompression mode                         : Lossy\nStream size                              : 179 MiB (26%)\nAlignment                                : Split accross interleaves\nInterleave, duration                     : 96 ms (2.40 video frames)\nInterleave, preload duration             : 96 ms\nLanguage                                 : English\n\n","torrent":{"xt":"urn:btih:60f33b9722080fb4581890e12066b71b1045ce49","amp;dn":"The+Man+Who+Sued+God+%282001%29+DVDRip+XviD+AC3+peaSoup","amp;tr":["udp%3A%2F%2Ftracker.openbittorrent.com%3A80","udp%3A%2F%2Fopen.demonii.com%3A1337","udp%3A%2F%2Ftracker.coppersurfer.tk%3A6969","udp%3A%2F%2Fexodus.desync.com%3A6969"],"infoHash":"60f33b9722080fb4581890e12066b71b1045ce49","infoHashBuffer":{"type":"Buffer","data":[96,243,59,151,34,8,15,180,88,24,144,225,32,102,183,27,16,69,206,73]},"announce":[],"urlList":[]}}